HIERARCHY
ROOT SimulationBone
{
	OFFSET 0.000000 0.000000 0.000000
	CHANNELS 6 Xposition Yposition Zposition Zrotation Yrotation Xrotation 
	JOINT Hips
	{
		OFFSET 0.000000 0.000000 0.000000
		CHANNELS 6 Xposition Yposition Zposition Zrotation Yrotation Xrotation 
		JOINT LeftUpLeg
		{
			OFFSET 0.103458 1.857831 10.548505
			CHANNELS 3 Zrotation Yrotation Xrotation
			JOINT LeftLeg
			{
				OFFSET 43.500000 -0.000031 0.000002
				CHANNELS 3 Zrotation Yrotation Xrotation
				JOINT LeftFoot
				{
					OFFSET 42.372200 0.000023 0.000003
					CHANNELS 3 Zrotation Yrotation Xrotation
					JOINT LeftToe
					{
						OFFSET 17.299997 -0.000001 -0.000010
						CHANNELS 3 Zrotation Yrotation Xrotation
						End Site
						{
							OFFSET 0.000000 0.000000 0.000000
						}
					}
				}
			}
		}
		JOINT RightUpLeg
		{
			OFFSET 0.103457 1.857828 -10.548510
			CHANNELS 3 Zrotation Yrotation Xrotation
			JOINT RightLeg
			{
				OFFSET 43.500046 -0.000015 0.000002
				CHANNELS 3 Zrotation Yrotation Xrotation
				JOINT RightFoot
				{
					OFFSET 42.372261 -0.000008 0.000023
					CHANNELS 3 Zrotation Yrotation Xrotation
					JOINT RightToe
					{
						OFFSET 17.299990 -0.000007 -0.000002
						CHANNELS 3 Zrotation Yrotation Xrotation
						End Site
						{
							OFFSET 0.000000 0.000000 0.000000
						}
					}
				}
			}
		}
		JOINT Spine
		{
			OFFSET 6.901967 -2.603726 -0.000001
			CHANNELS 3 Zrotation Yrotation Xrotation
			JOINT Spine1
			{
				OFFSET 12.588100 -0.000009 -0.000003
				CHANNELS 3 Zrotation Yrotation Xrotation
				JOINT Spine2
				{
					OFFSET 12.343202 0.000008 0.000008
					CHANNELS 3 Zrotation Yrotation Xrotation
					JOINT Neck
					{
						OFFSET 25.832897 -0.000015 -0.000004
						CHANNELS 3 Zrotation Yrotation Xrotation
						JOINT Head
						{
							OFFSET 11.766609 0.000013 -0.000006
							CHANNELS 3 Zrotation Yrotation Xrotation
							End Site
							{
								OFFSET 0.000000 0.000000 0.000000
							}
						}
					}
					JOINT LeftShoulder
					{
						OFFSET 19.745911 -1.480373 6.000098
						CHANNELS 3 Zrotation Yrotation Xrotation
						JOINT LeftArm
						{
							OFFSET 11.284123 -0.000007 -0.000032
							CHANNELS 3 Zrotation Yrotation Xrotation
							JOINT LeftForeArm
							{
								OFFSET 33.000050 0.000005 0.000031
								CHANNELS 3 Zrotation Yrotation Xrotation
								JOINT LeftHand
								{
									OFFSET 25.200008 0.000017 0.000013
									CHANNELS 3 Zrotation Yrotation Xrotation
									End Site
									{
										OFFSET 0.000000 0.000000 0.000000
									}
								}
							}
						}
					}
					JOINT RightShoulder
					{
						OFFSET 19.746092 -1.480379 -6.000077
						CHANNELS 3 Zrotation Yrotation Xrotation
						JOINT RightArm
						{
							OFFSET 11.284136 -0.000017 -0.000017
							CHANNELS 3 Zrotation Yrotation Xrotation
							JOINT RightForeArm
							{
								OFFSET 33.000099 0.000019 0.000015
								CHANNELS 3 Zrotation Yrotation Xrotation
								JOINT RightHand
								{
									OFFSET 25.199780 0.000140 0.000408
									CHANNELS 3 Zrotation Yrotation Xrotation
									End Site
									{
										OFFSET 0.000000 0.000000 0.000000
									}
								}
							}
						}
					}
				}
			}
		}
	}
}
MOTION
Frames: 15
Frame Time: 0.016667
225.405990 0.000000 -133.259624 180.000000 -80.365061 180.000000 -1.879884 91.252937 -0.059712 90.535960 -1.448898 -179.658648 168.095914 0.709198 178.824325 -26.219804 -2.025629 -6.614982 78.568218 4.173251 -2.038441 21.454555 0.003089 -0.000000 155.050308 3.219103 -173.140350 -78.412859 -1.491523 6.844728 70.837940 -4.322154 1.686697 21.454565 -0.003112 -0.000011 8.038881 -1.027794 -0.368523 6.072884 -2.034948 -0.790368 5.754597 -2.039566 -0.778048 8.630439 -4.240294 -8.939066 -11.942697 7.990252 -12.200196 -174.468753 -78.062364 -7.162386 -36.322836 44.461993 27.375872 -36.713331 -12.755564 1.229318 4.876504 4.092435 25.446228 -164.082685 72.342778 17.748717 1.617153 -58.555811 -41.527679 -30.412345 16.185417 -1.339929 10.632322 4.790713 -4.370001 
225.208861 0.000000 -131.104821 180.000000 -80.660181 180.000000 -1.844273 91.360308 -0.101055 90.556894 -1.441537 -179.365635 170.176904 0.750060 178.873549 -24.972062 -2.208813 -6.264595 79.400620 4.002029 -1.768374 21.454553 0.003092 0.000000 152.653291 3.605605 -172.640343 -76.792147 -1.153836 6.775231 71.415801 -4.387743 1.381923 21.454559 -0.003113 -0.000014 7.990319 -0.928836 -0.583010 5.978239 -1.826481 -1.213158 5.660025 -1.833655 -1.202093 8.955899 -3.575565 -9.126938 -12.683351 7.387347 -12.197311 -176.898667 -78.392086 -4.691303 -38.019079 44.103674 25.894662 -39.683456 -13.168697 1.328709 4.302931 3.964845 27.090369 -162.624228 72.140605 19.249785 3.550966 -57.434932 -44.062808 -30.950320 16.342864 -1.360172 10.331360 4.036944 -4.620661 
224.984869 0.000000 -128.922324 180.000000 -80.982265 180.000000 -1.821219 91.339378 -0.153970 90.707278 -1.527957 -179.094050 172.285033 0.806800 179.032932 -23.948872 -2.499083 -5.955548 80.334000 3.854739 -1.518228 21.454551 0.003094 -0.000000 150.625027 4.080997 -172.524049 -74.543570 -0.618541 6.756511 72.032383 -4.409026 1.364163 21.454555 -0.003113 -0.000018 7.992965 -0.856186 -0.799365 5.985722 -1.670096 -1.641914 5.667592 -1.679852 -1.631793 9.104818 -2.874946 -9.312175 -13.353717 6.768510 -12.175390 -179.632281 -78.671902 -1.913200 -39.596525 43.453843 24.574325 -42.844645 -13.675727 1.447792 3.759569 3.858662 28.911893 -160.978323 71.968914 20.944023 5.119819 -56.402939 -46.237426 -31.613232 16.471558 -1.382690 9.875262 3.260123 -4.685911 
224.729932 0.000000 -126.712331 180.000000 -81.325262 180.000000 -1.805156 91.255285 -0.232705 90.892877 -1.632382 -178.911072 174.424070 0.815301 179.069749 -22.981216 -2.803245 -5.598024 81.250737 3.670911 -1.276422 21.454549 0.003090 0.000001 148.892851 4.575167 -172.746358 -71.557664 0.118999 6.805533 72.170698 -4.365749 1.733532 21.454559 -0.003112 -0.000020 8.025362 -0.798300 -0.999342 6.052188 -1.543507 -2.039058 5.734165 -1.555651 -2.029705 8.885086 -2.331307 -9.377692 -13.602465 6.514471 -12.128996 178.150060 -79.050611 0.335469 -41.366131 42.704215 23.222802 -45.995591 -14.194478 1.571263 3.274252 3.483218 30.044312 -159.099077 71.866611 22.877777 6.317864 -55.605173 -47.865248 -32.158769 16.464068 -1.394140 9.017801 2.610012 -4.556079 
224.443830 0.000000 -124.476637 180.000000 -81.682285 180.000000 -1.789821 91.099213 -0.326488 91.075256 -1.750250 -178.836225 176.576632 0.808398 178.921545 -22.048616 -3.034756 -5.182512 82.191572 3.433007 -1.082125 21.454550 0.003088 0.000001 147.427255 4.991808 -173.042187 -67.904900 0.780020 6.954473 72.039165 -4.400585 2.029904 21.454565 -0.003112 -0.000020 8.074341 -0.754810 -1.175083 6.151415 -1.446397 -2.388630 5.833502 -1.460643 -2.379865 8.447330 -1.825743 -9.401258 -13.661880 6.344685 -12.052921 176.475614 -79.581301 2.025880 -43.330787 41.956936 21.545658 -49.020075 -14.595021 1.692116 2.671727 2.948125 30.688380 -157.554309 71.725712 24.468640 7.392015 -54.853442 -49.160493 -32.716260 16.425316 -1.403091 8.116782 2.211573 -4.454908 
224.130659 0.000000 -122.215772 180.000000 -82.046713 180.000000 -1.767714 90.849087 -0.417071 91.241048 -1.892465 -178.868634 178.736262 0.826651 178.614430 -21.154419 -3.150028 -4.731106 83.220444 3.148650 -0.973446 21.454554 0.003094 0.000001 146.241566 5.269610 -173.213511 -63.657882 1.137827 7.187000 71.945726 -4.633255 1.851128 21.454565 -0.003114 -0.000018 8.130630 -0.727472 -1.324191 6.265091 -1.382533 -2.685826 5.947270 -1.398569 -2.677443 7.995430 -1.227834 -9.475514 -13.843765 5.944438 -11.947925 175.152064 -80.231727 3.354306 -45.377973 41.238493 19.348160 -51.854512 -14.778130 1.797783 1.808378 2.431437 31.214508 -156.862039 71.468050 25.185589 8.541577 -53.962275 -50.323602 -33.438127 16.480940 -1.422258 7.587745 2.120154 -4.595320 
223.795638 0.000000 -119.930763 180.000000 -82.412926 180.000000 -1.720507 90.503754 -0.494636 91.420861 -2.059777 -178.972473 -179.039107 0.841804 178.345118 -20.253287 -3.273851 -4.320729 84.334469 2.880142 -0.930727 21.454557 0.003101 0.000000 145.457552 5.460802 -173.563166 -58.718644 1.472252 7.423584 71.874776 -4.915442 1.584672 21.454562 -0.003114 -0.000017 8.192213 -0.715148 -1.455664 6.389416 -1.349200 -2.948602 6.071674 -1.366822 -2.940413 7.613762 -0.671646 -9.566081 -14.194247 5.521617 -11.862624 173.893747 -80.755915 4.617215 -47.237659 40.411961 16.954585 -54.578022 -14.814064 1.890880 0.854525 1.938206 31.606167 -156.643394 71.204330 25.415839 9.742659 -53.135158 -51.315374 -34.194474 16.628394 -1.448836 7.459451 2.168793 -4.873198 
223.444212 0.000000 -117.625161 180.000000 -82.775849 180.000000 -1.638149 90.077490 -0.553787 91.632943 -2.233829 -179.107525 -176.706422 0.806818 178.353703 -19.282384 -3.533253 -4.061206 85.490369 2.710132 -0.929361 21.454555 0.003100 0.000000 145.179350 5.605347 -174.363228 -52.966616 2.053138 7.624375 71.729363 -5.073579 1.656334 21.454559 -0.003109 -0.000018 8.256170 -0.711438 -1.578975 6.518569 -1.333168 -3.195559 6.200908 -1.352282 -3.187459 7.349916 -0.328506 -9.620976 -14.679934 5.342155 -11.850252 172.568844 -80.937796 5.955197 -48.685855 39.391641 14.720431 -57.272736 -14.790876 1.983893 0.031118 1.432351 31.793353 -156.415854 71.045763 25.653260 10.940328 -52.609768 -52.038978 -34.800950 16.816642 -1.474694 7.603305 2.194620 -5.141336 
223.082274 0.000000 -115.303979 180.000000 -83.131215 180.000000 -1.562014 89.625359 -0.598508 91.802109 -2.331756 -179.249584 -174.348556 0.708303 178.895003 -18.150794 -3.898827 -4.123704 86.550052 2.751485 -0.989407 21.454553 0.003096 0.000001 145.346069 5.614306 -175.251466 -46.384077 2.580512 7.745159 71.429455 -5.106764 1.853955 21.454558 -0.003101 -0.000018 8.308766 -0.691901 -1.694099 6.624373 -1.286055 -3.425091 6.306799 -1.306556 -3.417272 7.217812 -0.258105 -9.654984 -15.220105 5.383986 -11.925445 171.486173 -80.907757 7.053276 -49.855879 38.333900 12.591331 -59.878963 -14.704755 2.073843 -0.555993 0.914332 31.886447 -156.136990 70.950390 25.942305 12.042962 -52.359966 -52.270204 -35.138676 16.927879 -1.489837 7.646660 2.256830 -5.414968 
222.713387 0.000000 -112.970486 180.000000 -83.474644 180.000000 -1.529864 89.196551 -0.634411 91.862521 -2.280014 -179.389681 -172.064929 0.520883 -179.989318 -16.839213 -4.271882 -4.565096 87.397754 3.035616 -1.142218 21.454553 0.003093 0.000001 145.860936 5.392922 -175.908905 -39.061712 2.760301 7.717156 70.874689 -5.071536 1.895009 21.454559 -0.003095 -0.000015 8.339316 -0.636761 -1.795883 6.684677 -1.169104 -3.625593 6.367195 -1.190817 -3.618482 7.206431 -0.443477 -9.697148 -15.736405 5.546225 -12.080533 170.856556 -80.867501 7.692549 -50.937257 37.426551 10.404400 -62.320987 -14.526971 2.153288 -0.862155 0.436808 32.058907 -155.821634 70.859020 26.268924 12.967338 -52.321626 -51.874140 -35.134176 16.870070 -1.486127 7.291545 2.416297 -5.693288 
222.339780 0.000000 -110.625957 180.000000 -83.800742 180.000000 -1.506793 88.775970 -0.652322 91.884302 -2.101139 -179.566679 -169.889126 0.215387 -179.129197 -15.658690 -4.467021 -4.921147 88.103804 3.235755 -1.432833 21.454555 0.003094 0.000001 146.635636 4.953989 -176.818913 -31.441989 2.812893 7.689308 69.858627 -5.076626 1.856112 21.454562 -0.003099 -0.000014 8.360497 -0.562726 -1.868285 6.725157 -1.016324 -3.766120 6.407746 -1.038890 -3.759932 7.240380 -0.671292 -9.761492 -16.204366 5.701254 -12.259919 170.444966 -80.944783 8.107199 -51.955670 36.805419 7.993483 -64.603323 -14.217780 2.220792 -0.965573 0.209932 32.560727 -155.279104 70.793412 26.828908 13.744757 -52.521879 -51.244808 -34.831918 16.720923 -1.469378 6.787833 2.532691 -5.744908 
221.964552 0.000000 -108.271804 180.000000 -84.101922 180.000000 -1.451560 88.336306 -0.641004 91.944701 -1.848444 -179.804394 -167.841320 -0.157097 -179.228484 -14.931408 -4.365710 -4.783180 88.763174 3.072276 -1.896313 21.454555 0.003097 0.000001 147.554662 4.387389 -178.449643 -24.133319 2.994357 7.895565 68.354362 -5.229312 1.881918 21.454563 -0.003115 -0.000017 8.384554 -0.492237 -1.900767 6.771074 -0.872799 -3.827066 6.453696 -0.895744 -3.821739 7.261790 -0.754407 -9.854103 -16.619693 5.767264 -12.418282 169.953932 -81.186986 8.596908 -52.883321 36.543685 5.283054 -66.733100 -13.759633 2.274384 -1.011337 0.360412 33.452535 -154.435045 70.765173 27.698451 14.449483 -52.942320 -50.806014 -34.339652 16.594746 -1.449858 6.496777 2.459648 -5.396180 
221.588249 0.000000 -105.911549 180.000000 -84.369113 180.000000 -1.370431 87.865692 -0.607119 92.012746 -1.607993 179.974653 -165.986082 -0.467304 -179.611490 -14.669332 -4.112231 -4.520546 89.373741 2.808257 -2.484499 21.454555 0.003099 0.000001 148.350683 3.926795 179.599032 -18.122199 3.377060 8.440920 67.160880 -5.587380 2.017786 21.454563 -0.003126 -0.000020 8.398177 -0.434352 -1.915730 6.796406 -0.755815 -3.853644 6.479044 -0.778928 -3.849016 7.348377 -0.806425 -9.966710 -17.009270 5.868567 -12.606338 169.283055 -81.400923 9.269286 -53.601681 36.525006 2.599358 -68.651289 -13.236021 2.314295 -1.307228 0.527763 33.953949 -153.896208 70.678412 28.255229 15.218313 -53.320464 -50.574586 -33.899655 16.582979 -1.439267 6.671039 2.201190 -4.950372 
221.208100 0.000000 -103.551301 180.000000 -84.596243 180.000000 -1.273780 87.360103 -0.558136 92.047061 -1.443541 179.847506 -164.422068 -0.674296 -179.583606 -14.888819 -3.853175 -4.505317 89.866896 2.705759 -3.128493 21.454553 0.003097 -0.000001 148.757708 3.714773 178.073167 -14.340048 3.922436 9.232975 66.995943 -6.081056 2.282467 21.454560 -0.003116 -0.000018 8.386855 -0.390344 -1.937513 6.772358 -0.667017 -3.894517 6.455019 -0.690370 -3.890423 7.562516 -0.976623 -10.085471 -17.384954 6.123257 -12.871091 168.567628 -81.395101 9.993839 -54.007867 36.633707 0.304010 -70.309664 -12.745379 2.347696 -2.047534 0.342717 33.456052 -154.152355 70.467594 27.996664 16.129092 -53.443274 -50.490546 -33.685705 16.727807 -1.443675 7.350036 1.839342 -4.701637 
220.823429 0.000000 -101.195295 180.000000 -84.779920 180.000000 -1.150939 86.831444 -0.471104 92.065247 -1.293076 179.801376 -163.293909 -0.931193 -179.778051 -15.924146 -3.520856 -4.324471 90.027452 2.485095 -3.787880 21.454551 0.003092 -0.000001 148.748596 3.501796 178.203966 -13.054573 4.272618 9.558603 67.429751 -6.167602 2.721202 21.454557 -0.003102 -0.000015 8.357075 -0.343741 -1.965142 6.711310 -0.573344 -3.946860 6.394002 -0.597007 -3.943332 7.767643 -1.257806 -10.186425 -17.661662 6.422924 -13.139546 168.474072 -81.227314 10.094334 -54.214632 36.881211 -1.552938 -71.763089 -12.345429 2.380049 -2.763769 -0.091451 32.872709 -154.552372 70.266524 27.589480 16.978748 -53.530660 -50.619129 -33.464309 16.896460 -1.449714 7.823451 1.636303 -4.408070 
